<svg width="140" height="158" viewBox="0 0 140 158" fill="none" xmlns="http://www.w3.org/2000/svg">
<path d="M8.38255 144.354V152.345H7.24565L7.067 150.932H6.98579C6.78006 151.365 6.45524 151.738 6.01131 152.052C5.56737 152.356 5.00434 152.507 4.3222 152.507C3.43434 152.507 2.73055 152.253 2.21082 151.744C1.70193 151.224 1.44748 150.461 1.44748 149.454V144.354H2.89296V149.178C2.89296 149.903 3.04996 150.444 3.36396 150.802C3.68879 151.148 4.12189 151.322 4.66327 151.322C5.34541 151.322 5.8922 151.067 6.30365 150.558C6.72593 150.038 6.93706 149.27 6.93706 148.252V144.354H8.38255ZM18.4795 147.196V152.345H17.3426L17.1639 150.932H17.0827C16.877 151.365 16.5522 151.738 16.1082 152.052C15.6643 152.356 15.1013 152.507 14.4191 152.507C13.5313 152.507 12.8275 152.253 12.3078 151.744C11.7989 151.224 11.5444 150.461 11.5444 149.454V140.001H12.9899V144.354H18.8043V145.491H12.9899V149.178C12.9899 149.903 13.1469 150.444 13.4609 150.802C13.7857 151.148 14.2188 151.322 14.7602 151.322C15.4423 151.322 15.9891 151.067 16.4006 150.558C16.8229 150.038 17.034 149.27 17.034 148.252V147.196H18.4795ZM27.2121 156.178V147.521C27.2121 146.796 27.0497 146.26 26.7249 145.913C26.4001 145.556 25.9616 145.377 25.4093 145.377C24.7056 145.377 24.1533 145.632 23.7527 146.141C23.3629 146.639 23.168 147.402 23.168 148.431V152.345H21.7226V144.354H22.8595L23.0381 145.767H23.1193C23.325 145.334 23.6336 144.966 24.0451 144.663C24.4565 144.349 25.025 144.192 25.7504 144.192C26.6599 144.192 27.3691 144.446 27.878 144.955C28.3978 145.464 28.6576 146.227 28.6576 147.245V155.041H30.704V156.178H27.2121ZM38.7051 146.092V152.345H37.5682L37.3895 150.932H37.3083C37.1026 151.365 36.7778 151.738 36.3338 152.052C35.8899 152.356 35.3269 152.507 34.6447 152.507C33.7569 152.507 33.0531 152.253 32.5333 151.744C32.0245 151.224 31.77 150.461 31.77 149.454V144.354H33.2155V149.178C33.2155 149.903 33.3725 150.444 33.6865 150.802C34.0113 151.148 34.4444 151.322 34.9858 151.322C35.6679 151.322 36.2147 151.072 36.6262 150.574C37.0485 150.066 37.2596 149.291 37.2596 148.252V146.141C37.2596 145.783 37.1838 145.431 37.0322 145.085C36.8915 144.738 36.637 144.37 36.2689 143.98C35.8682 143.536 35.5813 143.163 35.4081 142.86C35.2348 142.546 35.1482 142.248 35.1482 141.966C35.1482 141.403 35.3377 140.938 35.7167 140.57C36.0956 140.191 36.6911 140.001 37.5032 140.001H43.3339V144.354C43.3339 144.592 43.323 144.825 43.3014 145.052C43.2906 145.28 43.2743 145.518 43.2527 145.767H43.3339C43.5396 145.323 43.8482 144.949 44.2596 144.646C44.6819 144.343 45.2449 144.192 45.9487 144.192C46.8582 144.192 47.562 144.446 48.0601 144.955C48.569 145.464 48.8235 146.227 48.8235 147.245V152.345H47.378V147.521C47.378 146.796 47.221 146.26 46.907 145.913C46.6038 145.556 46.1707 145.377 45.6077 145.377C44.9147 145.377 44.3625 145.632 43.951 146.141C43.5396 146.639 43.3339 147.402 43.3339 148.431V156.178H41.8884V141.138H37.422C37.1513 141.138 36.9456 141.214 36.8048 141.366C36.6641 141.506 36.5937 141.674 36.5937 141.869C36.5937 142.118 36.6641 142.345 36.8048 142.551C36.9564 142.757 37.2271 143.071 37.6169 143.493C38.0175 143.926 38.299 144.343 38.4615 144.744C38.6239 145.134 38.7051 145.583 38.7051 146.092ZM51.988 156.178V144.354H53.1249L53.3035 145.767H53.3847C53.5905 145.334 53.9153 144.966 54.3592 144.663C54.8032 144.349 55.3662 144.192 56.0483 144.192C56.947 144.192 57.6508 144.446 58.1597 144.955C58.6686 145.464 58.9231 146.227 58.9231 147.245V152.345H57.4776V147.521C57.4776 146.796 57.3152 146.26 56.9903 145.913C56.6763 145.556 56.2486 145.377 55.7073 145.377C55.0251 145.377 54.4729 145.632 54.0506 146.141C53.6392 146.639 53.4335 147.402 53.4335 148.431V156.178H51.988ZM66.7099 152.345V140.001H68.1554V144.354H72.2157V145.491H68.1554V151.208H70.2343C70.9814 151.208 71.5228 151.37 71.8584 151.695C72.1941 152.02 72.3619 152.561 72.3619 153.319V153.758H70.9164V153.547C70.9164 153.113 70.8406 152.805 70.689 152.621C70.5375 152.437 70.2722 152.345 69.8932 152.345H66.7099ZM81.6623 156.178H80.2168V152.328C80.2168 151.863 80.2493 151.397 80.3142 150.932H80.2168C80.011 151.365 79.6916 151.738 79.2585 152.052C78.8363 152.356 78.284 152.507 77.6019 152.507C76.714 152.507 76.0103 152.253 75.4905 151.744C74.9816 151.224 74.7272 150.461 74.7272 149.454V140.001H76.1727V149.178C76.1727 149.903 76.3297 150.444 76.6437 150.802C76.9685 151.148 77.4016 151.322 77.943 151.322C78.6251 151.322 79.1719 151.067 79.5834 150.558C80.0056 150.038 80.2168 149.27 80.2168 148.252V144.37H81.6623V156.178ZM84.9053 156.178V144.354H86.0422L86.2209 145.767H86.3021C86.5078 145.334 86.8326 144.966 87.2766 144.663C87.7205 144.349 88.2835 144.192 88.9657 144.192C89.8644 144.192 90.5682 144.446 91.077 144.955C91.5859 145.464 91.8404 146.227 91.8404 147.245V152.345H90.3949V147.521C90.3949 146.796 90.2325 146.26 89.9077 145.913C89.5937 145.556 89.166 145.377 88.6246 145.377C87.9425 145.377 87.3903 145.632 86.968 146.141C86.5565 146.639 86.3508 147.402 86.3508 148.431V156.178H84.9053ZM97.7308 152.491C96.8754 152.491 96.1933 152.247 95.6844 151.76C95.1755 151.273 94.9211 150.542 94.9211 149.567V144.354H96.3665V149.291C96.3665 149.973 96.5235 150.482 96.8375 150.818C97.1624 151.143 97.5738 151.305 98.0719 151.305C98.7432 151.305 99.2792 151.072 99.6798 150.607C100.091 150.141 100.297 149.416 100.297 148.431V144.354H101.742V149.291C101.742 149.973 101.899 150.482 102.213 150.818C102.538 151.143 102.95 151.305 103.448 151.305C104.087 151.305 104.612 151.072 105.023 150.607C105.445 150.141 105.657 149.416 105.657 148.431V144.354H107.102V152.345H105.981L105.787 151.045H105.705C105.51 151.424 105.202 151.76 104.78 152.052C104.368 152.345 103.811 152.491 103.107 152.491C102.511 152.491 101.991 152.366 101.548 152.117C101.104 151.868 100.784 151.495 100.589 150.997H100.508C100.292 151.43 99.9342 151.787 99.4362 152.069C98.9489 152.35 98.3805 152.491 97.7308 152.491ZM113.435 143.412V143.769C112.948 144.527 112.558 145.204 112.266 145.799C111.973 146.395 111.757 146.953 111.616 147.472C111.486 147.992 111.421 148.512 111.421 149.031C111.421 149.876 111.6 150.472 111.957 150.818C112.325 151.154 112.834 151.322 113.484 151.322C114.166 151.322 114.718 151.067 115.14 150.558C115.573 150.038 115.79 149.27 115.79 148.252V144.354H117.235V152.345H116.099L115.92 150.932H115.822C115.617 151.365 115.292 151.738 114.848 152.052C114.415 152.356 113.857 152.507 113.175 152.507C112.146 152.507 111.351 152.215 110.788 151.63C110.225 151.045 109.943 150.212 109.943 149.129C109.943 148.642 110.003 148.154 110.122 147.667C110.252 147.169 110.468 146.628 110.771 146.043C111.075 145.448 111.491 144.776 112.022 144.029L111.161 143.526C110.403 143.082 110.024 142.557 110.024 141.95C110.024 141.625 110.127 141.274 110.333 140.895L110.836 139.953L111.957 140.505L111.6 141.106C111.459 141.344 111.389 141.566 111.389 141.772C111.389 142.14 111.621 142.448 112.087 142.697L113.435 143.412ZM121.923 140.001V144.354C121.923 144.592 121.912 144.825 121.891 145.052C121.88 145.28 121.864 145.518 121.842 145.767H121.923C122.129 145.323 122.438 144.949 122.849 144.646C123.271 144.343 123.834 144.192 124.538 144.192C125.448 144.192 126.151 144.446 126.649 144.955C127.158 145.464 127.413 146.227 127.413 147.245V152.345H125.967V147.521C125.967 146.796 125.81 146.26 125.496 145.913C125.193 145.556 124.76 145.377 124.197 145.377C123.504 145.377 122.952 145.632 122.54 146.141C122.129 146.639 121.923 147.402 121.923 148.431V156.178H120.478V140.001H121.923ZM133.661 143.412V143.769C133.173 144.527 132.784 145.204 132.491 145.799C132.199 146.395 131.982 146.953 131.842 147.472C131.712 147.992 131.647 148.512 131.647 149.031C131.647 149.876 131.825 150.472 132.183 150.818C132.551 151.154 133.06 151.322 133.709 151.322C134.391 151.322 134.944 151.067 135.366 150.558C135.799 150.038 136.016 149.27 136.016 148.252V144.354H137.461V152.345H136.324L136.145 150.932H136.048C135.842 151.365 135.517 151.738 135.074 152.052C134.64 152.356 134.083 152.507 133.401 152.507C132.372 152.507 131.576 152.215 131.013 151.63C130.45 151.045 130.169 150.212 130.169 149.129C130.169 148.642 130.228 148.154 130.347 147.667C130.477 147.169 130.694 146.628 130.997 146.043C131.3 145.448 131.717 144.776 132.248 144.029L131.387 143.526C130.629 143.082 130.25 142.557 130.25 141.95C130.25 141.625 130.353 141.274 130.558 140.895L131.062 139.953L132.183 140.505L131.825 141.106C131.685 141.344 131.614 141.566 131.614 141.772C131.614 142.14 131.847 142.448 132.313 142.697L133.661 143.412Z" fill="#5B6142"/>
<rect x="23.0087" y="23.0087" width="83.9138" height="83.9138" rx="41.9569" fill="#5B6142" fill-opacity="0.15"/>
<rect x="23.0087" y="23.0087" width="83.9138" height="83.9138" rx="41.9569" stroke="#5B6142" stroke-width="2.7069"/>
<g opacity="0.9">
<path d="M74.4401 63.3867V55.4915C74.4401 54.654 74.1074 53.8507 73.5151 53.2585C72.9229 52.6662 72.1196 52.3335 71.2821 52.3335C70.4445 52.3335 69.6412 52.6662 69.049 53.2585C68.4567 53.8507 68.124 54.654 68.124 55.4915" stroke="#5B6142" stroke-width="2.36853" stroke-linecap="round" stroke-linejoin="round"/>
<path d="M68.1237 61.8075V52.3333C68.1237 51.4958 67.791 50.6925 67.1987 50.1003C66.6065 49.508 65.8032 49.1753 64.9657 49.1753C64.1281 49.1753 63.3248 49.508 62.7326 50.1003C62.1403 50.6925 61.8076 51.4958 61.8076 52.3333V61.8075" stroke="#5B6142" stroke-width="2.36853" stroke-linecap="round" stroke-linejoin="round"/>
<path d="M61.8083 62.5971V55.4915C61.8083 54.654 61.4756 53.8507 60.8833 53.2585C60.2911 52.6662 59.4878 52.3335 58.6502 52.3335C57.8127 52.3335 57.0094 52.6662 56.4172 53.2585C55.8249 53.8507 55.4922 54.654 55.4922 55.4915V68.1237" stroke="#5B6142" stroke-width="2.36853" stroke-linecap="round" stroke-linejoin="round"/>
<path d="M74.4399 58.6495C74.4399 57.8119 74.7726 57.0087 75.3648 56.4164C75.9571 55.8242 76.7603 55.4915 77.5979 55.4915C78.4355 55.4915 79.2387 55.8242 79.831 56.4164C80.4232 57.0087 80.7559 57.8119 80.7559 58.6495V68.1236C80.7559 71.4739 79.4251 74.6869 77.0561 77.0559C74.6871 79.4249 71.474 80.7558 68.1238 80.7558H64.9657C60.5445 80.7558 57.8601 79.3979 55.5074 77.0609L49.8229 71.3764C49.2796 70.7747 48.9885 69.9871 49.0099 69.1768C49.0313 68.3664 49.3635 67.5952 49.9377 67.023C50.512 66.4508 51.2843 66.1213 52.0947 66.1028C52.9052 66.0843 53.6918 66.3782 54.2915 66.9236L57.0706 69.7027" stroke="#5B6142" stroke-width="2.36853" stroke-linecap="round" stroke-linejoin="round"/>
</g>
<rect x="1.35345" y="1.35345" width="127.17" height="127.17" rx="63.585" stroke="#5B6142" stroke-width="2.7069"/>
</svg>
