<svg width="15" height="15" viewBox="0 0 15 15" fill="none" xmlns="http://www.w3.org/2000/svg">
<path d="M10.0179 3.83032H10.3125M1.76785 5.53925C1.76785 4.21925 1.76785 3.55925 2.02478 3.05482C2.25077 2.61132 2.61135 2.25073 3.05485 2.02475C3.55928 1.76782 4.21928 1.76782 5.53928 1.76782H8.60357C9.92357 1.76782 10.5836 1.76782 11.088 2.02475C11.5315 2.25073 11.8921 2.61132 12.1181 3.05482C12.375 3.55925 12.375 4.21925 12.375 5.53925V8.60354C12.375 9.92354 12.375 10.5835 12.1181 11.088C11.8921 11.5315 11.5315 11.8921 11.088 12.118C10.5836 12.375 9.92357 12.375 8.60357 12.375H5.53928C4.21928 12.375 3.55928 12.375 3.05485 12.118C2.61135 11.8921 2.25077 11.5315 2.02478 11.088C1.76785 10.5835 1.76785 9.92354 1.76785 8.60354V5.53925Z" stroke="#DEDAD5" stroke-width="0.883929" stroke-linecap="round" stroke-linejoin="round"/>
<path d="M9.07189 7.57301C9.13776 7.31026 9.15122 7.03712 9.11152 6.76917C9.03135 6.22802 8.73949 5.74089 8.30014 5.41493C7.8608 5.08897 7.30997 4.95089 6.76882 5.03107C6.22767 5.11125 5.74054 5.40311 5.41458 5.84245C5.08862 6.28179 4.95054 6.83263 5.03072 7.37378C5.1109 7.91492 5.40276 8.40206 5.8421 8.72801C6.05964 8.88941 6.30684 9.00638 6.56959 9.07224C6.83233 9.13811 7.10548 9.15157 7.37343 9.11187C7.64137 9.07217 7.89888 8.98009 8.13124 8.84087C8.3636 8.70165 8.56627 8.51803 8.72766 8.30049C8.88906 8.08295 9.00603 7.83575 9.07189 7.57301Z" stroke="#DEDAD5" stroke-width="0.883929" stroke-linecap="round" stroke-linejoin="round"/>
</svg>
