<svg width="25" height="24" viewBox="0 0 25 24" fill="none" xmlns="http://www.w3.org/2000/svg">
<path d="M5.28059 0.201578C5.13835 0.0689097 4.95022 -0.00331608 4.75583 0.000117013C4.56144 0.00355011 4.37596 0.0823741 4.23849 0.219983C4.10101 0.357591 4.02226 0.54324 4.01883 0.737817C4.0154 0.932395 4.08756 1.12071 4.2201 1.26309L8.38002 5.427L8.30999 5.48909H6.25104C5.65403 5.48909 5.08147 5.72648 4.65931 6.14904C4.23716 6.5716 4 7.14471 4 7.74229V12.2487C4 12.8463 4.23716 13.4194 4.65931 13.8419C5.08147 14.2645 5.65403 14.5019 6.25104 14.5019H8.31099L11.5085 17.3469C12.9601 18.6388 15.2552 17.6073 15.2552 15.6635V12.3088L22.7286 19.7894C22.8702 19.9262 23.0598 20.0018 23.2565 20C23.4533 19.9982 23.6414 19.9191 23.7805 19.7798C23.9195 19.6404 23.9984 19.452 24 19.2551C24.0016 19.0582 23.9259 18.8685 23.7891 18.7269L5.28059 0.201578ZM13.7545 10.8066V15.6635C13.7543 15.8082 13.7124 15.9498 13.6338 16.0712C13.5552 16.1926 13.4432 16.2888 13.3113 16.348C13.1795 16.4072 13.0333 16.4271 12.8904 16.4051C12.7475 16.3832 12.614 16.3204 12.5059 16.2243L9.09435 13.19C8.95715 13.0677 8.77987 13 8.59612 12.9998H6.25104C6.05203 12.9998 5.86118 12.9206 5.72046 12.7798C5.57975 12.6389 5.50069 12.4479 5.50069 12.2487V7.74229C5.50069 7.5431 5.57975 7.35206 5.72046 7.21121C5.86118 7.07035 6.05203 6.99122 6.25104 6.99122H8.59612C8.77987 6.991 8.95715 6.9233 9.09435 6.80095L9.44251 6.49051L13.7545 10.8066ZM13.7545 4.32744V6.65174L15.2552 8.15388V4.32844C15.2552 2.38368 12.9601 1.35221 11.5085 2.64305L10.578 3.47222L11.6405 4.53574L12.5059 3.76664C12.614 3.67057 12.7475 3.60779 12.8904 3.58585C13.0333 3.56392 13.1795 3.58376 13.3113 3.643C13.4432 3.70223 13.5552 3.79834 13.6338 3.91976C13.7124 4.04118 13.7543 4.18275 13.7545 4.32744ZM17.005 9.90536L18.2966 11.1982C18.5138 10.5984 18.5643 9.95088 18.4427 9.32462C18.3211 8.69837 18.0321 8.11688 17.6063 7.64215C17.4721 7.49829 17.2869 7.41289 17.0905 7.40431C16.8941 7.39573 16.7021 7.46466 16.556 7.59628C16.4098 7.72789 16.3211 7.91167 16.3089 8.10809C16.2967 8.3045 16.362 8.49786 16.4908 8.64658C16.8139 9.00509 16.985 9.45272 17.005 9.90536ZM19.259 12.1616L20.3645 13.2681C21.7442 10.9729 21.5231 7.85545 19.7002 5.82357C19.5664 5.6789 19.381 5.59274 19.1843 5.58366C18.9875 5.57459 18.795 5.64334 18.6485 5.77508C18.5019 5.90681 18.4129 6.09095 18.4008 6.28776C18.3887 6.48457 18.4544 6.67825 18.5837 6.82699C19.8733 8.26403 20.0984 10.4602 19.259 12.1616Z" fill="white"/>
</svg>
