<svg width="20" height="20" viewBox="0 0 20 20" fill="none" xmlns="http://www.w3.org/2000/svg">
<path d="M9.1665 3.91844C9.16634 3.80237 9.13179 3.68894 9.06722 3.59248C9.00266 3.49603 8.91096 3.42086 8.80372 3.37646C8.69647 3.33206 8.57847 3.32043 8.46462 3.34303C8.35077 3.36563 8.24616 3.42145 8.164 3.50344L5.344 6.3226C5.23517 6.43209 5.1057 6.51888 4.96308 6.57796C4.82046 6.63704 4.66754 6.66722 4.51317 6.66677H2.49984C2.27882 6.66677 2.06686 6.75457 1.91058 6.91085C1.7543 7.06713 1.6665 7.27909 1.6665 7.5001V12.5001C1.6665 12.7211 1.7543 12.9331 1.91058 13.0894C2.06686 13.2456 2.27882 13.3334 2.49984 13.3334H4.51317C4.66754 13.333 4.82046 13.3632 4.96308 13.4223C5.1057 13.4813 5.23517 13.5681 5.344 13.6776L8.16317 16.4976C8.24534 16.5799 8.35009 16.636 8.46416 16.6588C8.57824 16.6815 8.69649 16.6699 8.80394 16.6253C8.91139 16.5808 9.00321 16.5054 9.06775 16.4086C9.1323 16.3118 9.16667 16.1981 9.1665 16.0818V3.91844Z" stroke="#E8E6D9" stroke-width="1.66667" stroke-linecap="round" stroke-linejoin="round"/>
<path d="M13.3335 7.5C13.8744 8.22123 14.1668 9.09846 14.1668 10C14.1668 10.9015 13.8744 11.7788 13.3335 12.5" stroke="#E8E6D9" stroke-width="1.66667" stroke-linecap="round" stroke-linejoin="round"/>
<path d="M16.1367 15.3034C16.8332 14.607 17.3856 13.7802 17.7625 12.8703C18.1395 11.9603 18.3335 10.985 18.3335 10.0001C18.3335 9.01519 18.1395 8.03991 17.7625 7.12996C17.3856 6.22002 16.8332 5.39322 16.1367 4.69678" stroke="#E8E6D9" stroke-width="1.66667" stroke-linecap="round" stroke-linejoin="round"/>
</svg>
